<svg xmlns="http://www.w3.org/2000/svg" width="20" height="20" viewBox="0 0 20 20" fill="none">
    <path d="M3.3448 5.96154V3.27832H2.674L2.01367 3.68185V4.30025L2.60063 3.94913H2.61635V5.96154H3.3448Z" fill="#6B7280"/>
    <path d="M6.75 4.00012C6.33579 4.00012 6 4.33591 6 4.75012C6 5.16434 6.33579 5.50012 6.75 5.50012H17.25C17.6642 5.50012 18 5.16434 18 4.75012C18 4.33591 17.6642 4.00012 17.25 4.00012H6.75Z" fill="#6B7280"/>
    <path d="M6.75 9.25012C6.33579 9.25012 6 9.58591 6 10.0001C6 10.4143 6.33579 10.7501 6.75 10.7501H17.25C17.6642 10.7501 18 10.4143 18 10.0001C18 9.58591 17.6642 9.25012 17.25 9.25012H6.75Z" fill="#6B7280"/>
    <path d="M6.75 14.5001C6.33579 14.5001 6 14.8359 6 15.2501C6 15.6643 6.33579 16.0001 6.75 16.0001H17.25C17.6642 16.0001 18 15.6643 18 15.2501C18 14.8359 17.6642 14.5001 17.25 14.5001H6.75Z" fill="#6B7280"/>
    <path d="M2.03532 10.9619V10.4378L3.03629 9.60976C3.10267 9.55473 3.15944 9.5032 3.20661 9.45516C3.25465 9.40625 3.29133 9.35602 3.31666 9.30449C3.34286 9.25296 3.35597 9.19575 3.35597 9.13286C3.35597 9.06386 3.34112 9.0049 3.31142 8.95599C3.2826 8.90707 3.24242 8.86951 3.19089 8.84331C3.13935 8.81623 3.07996 8.8027 3.0127 8.8027C2.94545 8.8027 2.88605 8.81623 2.83452 8.84331C2.78386 8.87039 2.74455 8.91013 2.7166 8.96254C2.68865 9.01494 2.67468 9.0787 2.67468 9.15382H1.98291C1.98291 8.96516 2.02527 8.8027 2.11 8.66644C2.19472 8.53018 2.31438 8.42537 2.46898 8.352C2.62358 8.27863 2.80482 8.24194 3.0127 8.24194C3.22757 8.24194 3.41361 8.27644 3.57083 8.34545C3.72893 8.41358 3.85077 8.50965 3.93637 8.63368C4.02284 8.75771 4.06608 8.90314 4.06608 9.06997C4.06608 9.17304 4.04468 9.27567 4.00188 9.37786C3.95908 9.47918 3.88222 9.59142 3.77129 9.71457C3.66036 9.83773 3.50271 9.98447 3.29832 10.1548L3.04677 10.3644V10.3801H4.0949V10.9619H2.03532Z" fill="#6B7280"/>
    <path d="M2.41511 16.1514C2.57932 16.2239 2.76711 16.2601 2.97849 16.2601C3.19772 16.2601 3.39119 16.2256 3.55889 16.1566C3.72747 16.0876 3.85892 15.9924 3.95325 15.871C4.04846 15.7496 4.09562 15.6103 4.09475 15.4531C4.0965 15.2889 4.04278 15.1526 3.9336 15.0443C3.82442 14.9351 3.66152 14.8687 3.44491 14.8452V14.8242C3.60475 14.8067 3.73664 14.7499 3.84058 14.6539C3.94539 14.5578 3.99692 14.4346 3.99518 14.2844C3.99605 14.1333 3.95325 13.9992 3.86678 13.8822C3.78118 13.7643 3.66196 13.6717 3.50911 13.6044C3.35713 13.5372 3.182 13.5035 2.98373 13.5035C2.78109 13.5035 2.6016 13.5394 2.44525 13.611C2.2889 13.6826 2.16575 13.7813 2.07578 13.9071C1.98669 14.0328 1.94171 14.1778 1.94083 14.342H2.63784C2.63872 14.2879 2.654 14.2399 2.6837 14.1979C2.7134 14.156 2.75401 14.1232 2.80555 14.0997C2.85795 14.0761 2.91735 14.0643 2.98373 14.0643C3.04487 14.0643 3.09859 14.0756 3.14488 14.0984C3.19204 14.1211 3.22873 14.1525 3.25493 14.1927C3.28114 14.2329 3.2938 14.2792 3.29293 14.3316C3.2938 14.3857 3.27852 14.4338 3.24707 14.4757C3.2165 14.5176 3.17327 14.5504 3.11737 14.5739C3.06234 14.5975 2.99858 14.6093 2.92608 14.6093H2.65357V15.1124H2.92608C3.00469 15.1124 3.07413 15.1242 3.1344 15.1478C3.19467 15.1714 3.24139 15.2041 3.27459 15.2461C3.30865 15.288 3.32524 15.336 3.32437 15.3902C3.32524 15.4452 3.31127 15.4941 3.28245 15.5369C3.25362 15.5797 3.21344 15.6133 3.16191 15.6378C3.11038 15.6614 3.05098 15.6732 2.98373 15.6732C2.91385 15.6732 2.85184 15.6618 2.79768 15.6391C2.74353 15.6164 2.70073 15.585 2.66929 15.5448C2.63872 15.5037 2.623 15.4574 2.62212 15.4059H1.88843C1.8893 15.5727 1.93647 15.7203 2.02993 15.8487C2.12338 15.9771 2.25178 16.078 2.41511 16.1514Z" fill="#6B7280"/>
</svg>
