<svg xmlns="http://www.w3.org/2000/svg" width="20" height="20" viewBox="-5 -5 20 20" fill="none">
    <path d="M1.106 8C0.495175 8 0 7.48833 0 6.85714V5.71429C0 5.68875 0.000810562 5.66341 0.00240661 5.63829C0.0202866 5.0371 0.137796 4.40695 0.354936 3.74785C0.59156 3.02961 0.920615 2.34193 1.3421 1.68481C1.76359 1.0277 2.25902 0.466092 2.82839 0L4.46997 1.2149C4.01891 1.89494 3.63439 2.60554 3.31643 3.3467C3.14902 3.73694 3.02568 4.14518 2.94641 4.57143H3.31802C3.92885 4.57143 4.42402 5.0831 4.42402 5.71429V6.85714C4.42402 7.48833 3.92885 8 3.31802 8H1.106Z" fill="#6B7280"/>
    <path d="M6.63603 8C6.0252 8 5.53003 7.48833 5.53003 6.85714V5.71429C5.53003 5.68875 5.53084 5.6634 5.53243 5.63828C5.55031 5.03709 5.66782 4.40695 5.88496 3.74785C6.12159 3.02961 6.45064 2.34193 6.87213 1.68481C7.29361 1.0277 7.78905 0.466092 8.35842 0L10 1.2149C9.54893 1.89494 9.16442 2.60554 8.84646 3.3467C8.67905 3.73694 8.55571 4.14518 8.47644 4.57143H8.84804C9.45887 4.57143 9.95405 5.0831 9.95405 5.71429V6.85714C9.95405 7.48833 9.45887 8 8.84804 8H6.63603Z" fill="#6B7280"/>
</svg>
