<svg xmlns="http://www.w3.org/2000/svg" width="31" height="28" viewBox="0 0 31 28" fill="none">
    <path fill-rule="evenodd" clip-rule="evenodd" d="M18.6317 7.31803V0.317609C16.5621 -0.10587 14.4285 -0.10587 12.3588 0.317609V7.31803H18.6317ZM30.5 13.1191C30.4028 12.2073 30.2165 11.3072 29.9438 10.4319L29.7562 9.80705C29.4436 8.94077 29.0496 8.10635 28.58 7.31462L18.6347 10.4319H12.362L2.43005 7.30113C1.952 8.10605 1.5524 8.95544 1.23725 9.83729L1.0697 10.3411C0.7904 11.2316 0.5996 12.1474 0.5 13.0755L10.4252 16.2331L4.28645 24.436C4.93625 25.1353 5.6522 25.7698 6.42425 26.3306L6.8498 26.6294C7.6379 27.1628 8.47355 27.6216 9.34625 28L15.4815 19.7971L21.6236 28C22.4928 27.6216 23.3261 27.1651 24.1133 26.6362L24.5489 26.3272C25.3202 25.7667 26.0351 25.1322 26.6834 24.4326L20.5447 16.2297L30.5 13.1191Z" fill="#FCC237"/>
</svg>
