<svg width="20" height="20" viewBox="0 0 20 20" fill="none" xmlns="http://www.w3.org/2000/svg">
    <path fill-rule="evenodd" clip-rule="evenodd" d="M10 17C13.866 17 17 13.866 17 10C17 6.13401 13.866 3 10 3C6.13401 3 3 6.13401 3 10C3 13.866 6.13401 17 10 17ZM7.21967 7.21967C7.51256 6.92678 7.98744 6.92678 8.28033 7.21967L10 8.93934L11.7197 7.21967C12.0126 6.92678 12.4874 6.92678 12.7803 7.21967C13.0732 7.51256 13.0732 7.98744 12.7803 8.28033L11.0607 10L12.7803 11.7197C13.0732 12.0126 13.0732 12.4874 12.7803 12.7803C12.4874 13.0732 12.0126 13.0732 11.7197 12.7803L10 11.0607L8.28033 12.7803C7.98744 13.0732 7.51256 13.0732 7.21967 12.7803C6.92678 12.4874 6.92678 12.0126 7.21967 11.7197L8.93934 10L7.21967 8.28033C6.92678 7.98744 6.92678 7.51256 7.21967 7.21967Z" fill="#6B7280"/>
</svg>
