<svg xmlns="http://www.w3.org/2000/svg" width="20" height="20" viewBox="0 0 20 20" fill="none">
    <path fill-rule="evenodd" clip-rule="evenodd" d="M4.47102 3.46746C6.27039 3.15991 8.11739 3 10 3C11.8826 3 13.7296 3.15991 15.529 3.46746C15.8007 3.51389 16 3.75747 16 4.04302V5.8223C16 6.28643 15.8222 6.73155 15.5057 7.05974L11.9943 10.7013C11.6778 11.0295 11.5 11.4746 11.5 11.9387V14.3004C11.5 14.832 11.267 15.3348 10.8667 15.6669L9.41389 16.8722C9.24505 17.0122 9.01372 17.0396 8.81883 16.9424C8.62394 16.8453 8.5 16.6409 8.5 16.4167V11.9387C8.5 11.4746 8.32221 11.0295 8.00574 10.7013L4.49426 7.05974C4.17779 6.73155 4 6.28643 4 5.8223V4.04302C4 3.75747 4.19934 3.51389 4.47102 3.46746Z" fill="#6B7280"/>
</svg>
