<svg xmlns="http://www.w3.org/2000/svg" width="72" height="72" viewBox="0 0 72 72" fill="none">
    <path fill-rule="evenodd" clip-rule="evenodd" d="M41.6371 23.9724V11.3717C37.9119 10.6094 34.0714 10.6094 30.3459 11.3717V23.9724H41.6371ZM63 34.4143C62.825 32.7731 62.4897 31.1529 61.9988 29.5773L61.6611 28.4527C61.0984 26.8934 60.3894 25.3914 59.544 23.9663L41.6425 29.5773H30.3516L12.4741 23.942C11.6136 25.3909 10.8943 26.9198 10.327 28.5071L10.0255 29.4141C9.52272 31.0169 9.17928 32.6653 9 34.3359L26.8654 40.0195L15.8156 54.7847C16.9852 56.0436 18.274 57.1856 19.6637 58.195L20.4296 58.7329C21.8482 59.693 23.3524 60.5188 24.9233 61.2L35.9668 46.4347L47.0225 61.2C48.5871 60.5188 50.087 59.6972 51.5039 58.7452L52.288 58.1889C53.6764 57.18 54.9632 56.038 56.1301 54.7786L45.0804 40.0134L63 34.4143Z" fill="#FCC237"/>
</svg>
