<svg xmlns="http://www.w3.org/2000/svg" width="20" height="20" viewBox="0 0 20 20" fill="none">
    <path d="M5.32721 15C4.59421 15 4 14.3604 4 13.5714V12.1429C4 12.1109 4.00097 12.0793 4.00289 12.0479C4.02434 11.2964 4.16536 10.5087 4.42592 9.68481C4.70987 8.78701 5.10474 7.92741 5.61052 7.10602C6.1163 6.28462 6.71082 5.58262 7.39407 5L9.36397 6.51862C8.82269 7.36867 8.36127 8.25692 7.97972 9.18338C7.77882 9.67118 7.63081 10.1815 7.53569 10.7143H7.98162C8.71461 10.7143 9.30883 11.3539 9.30883 12.1429V13.5714C9.30883 14.3604 8.71461 15 7.98162 15H5.32721Z" fill="currentColor"/>
    <path d="M11.9632 15C11.2302 15 10.636 14.3604 10.636 13.5714V12.1429C10.636 12.1109 10.637 12.0793 10.6389 12.0479C10.6604 11.2964 10.8014 10.5087 11.062 9.68481C11.3459 8.78701 11.7408 7.92741 12.2466 7.10602C12.7523 6.28462 13.3469 5.58262 14.0301 5L16 6.51862C15.4587 7.36867 14.9973 8.25692 14.6158 9.18338C14.4149 9.67118 14.2668 10.1815 14.1717 10.7143H14.6177C15.3506 10.7143 15.9449 11.3539 15.9449 12.1429V13.5714C15.9449 14.3604 15.3506 15 14.6177 15H11.9632Z" fill="currentColor"/>
</svg>
