<svg xmlns="http://www.w3.org/2000/svg" width="20" height="20" viewBox="0 0 20 20" fill="none">
    <path fill-rule="evenodd" clip-rule="evenodd" d="M15.3124 11.9233C14.5263 14.8574 11.5104 16.5986 8.57633 15.8124C7.60731 15.5528 6.77027 15.0511 6.11055 14.3902L5.79901 14.0786L8.23224 14.0782C8.64646 14.0781 8.98218 13.7423 8.98211 13.3281C8.98203 12.9139 8.64619 12.5781 8.23197 12.5782L3.98854 12.579C3.78962 12.579 3.59887 12.6581 3.45824 12.7987C3.31761 12.9394 3.23863 13.1302 3.23868 13.3291L3.23957 17.571C3.23965 17.9852 3.57551 18.3209 3.98972 18.3208C4.40394 18.3207 4.73965 17.9849 4.73957 17.5706L4.73906 15.14L5.04891 15.4499C5.88994 16.2924 6.95762 16.9316 8.18811 17.2613C11.9224 18.2619 15.7607 16.0458 16.7613 12.3116C16.8685 11.9115 16.6311 11.5002 16.231 11.393C15.8309 11.2858 15.4196 11.5232 15.3124 11.9233ZM16.5414 8.20095C16.682 8.06027 16.761 7.86947 16.761 7.67054L16.7603 3.42859C16.7602 3.01438 16.4244 2.67864 16.0102 2.67871C15.5959 2.67878 15.2602 3.01462 15.2603 3.42883L15.2607 5.8597L14.9509 5.54989C14.1099 4.70747 13.0419 4.06802 11.8116 3.73835C8.07731 2.73775 4.23895 4.95383 3.23836 8.68809C3.13115 9.08819 3.36859 9.49944 3.76869 9.60665C4.16879 9.71386 4.58004 9.47642 4.68725 9.07632C5.47343 6.14226 8.48928 4.40105 11.4233 5.18723C12.3924 5.44689 13.2295 5.94857 13.8892 6.60955L14.2003 6.92066L11.7683 6.92066C11.3541 6.92066 11.0183 7.25644 11.0183 7.67066C11.0183 8.08487 11.3541 8.42066 11.7683 8.42066H16.011C16.2099 8.42066 16.4007 8.34162 16.5414 8.20095Z" fill="currentColor"/>
</svg>
