<svg xmlns="http://www.w3.org/2000/svg" width="16" height="16" viewBox="0 0 16 16" fill="none">
    <path fill-rule="evenodd" clip-rule="evenodd" d="M6.23479 1.78532C6.4636 2.02502 6.45477 2.40482 6.21507 2.63362L2.89832 5.79961H10.9008C13.2756 5.79961 15.2008 7.72479 15.2008 10.0996C15.2008 12.4744 13.2756 14.3996 10.9008 14.3996H8.60078C8.26941 14.3996 8.00078 14.131 8.00078 13.7996C8.00078 13.4682 8.26941 13.1996 8.60078 13.1996H10.9008C12.6129 13.1996 14.0008 11.8117 14.0008 10.0996C14.0008 8.38753 12.6129 6.99961 10.9008 6.99961H2.89832L6.21507 10.1656C6.45477 10.3944 6.4636 10.7742 6.23479 11.0139C6.00599 11.2536 5.62619 11.2624 5.3865 11.0336L0.986496 6.83362C0.867887 6.72041 0.800781 6.56358 0.800781 6.39961C0.800781 6.23564 0.867887 6.07881 0.986496 5.9656L5.3865 1.7656C5.62619 1.53679 6.00599 1.54563 6.23479 1.78532Z" fill="currentColor"/>
</svg>
