<svg xmlns="http://www.w3.org/2000/svg" width="20" height="20" viewBox="0 0 20 20" fill="none">
    <path d="M10 7C10 5.89543 9.10457 5 8 5C6.89543 5 6 5.89543 6 7C6 8.10457 6.89543 9 8 9C9.10457 9 10 8.10457 10 7Z" fill="currentColor"/>
    <path d="M17.25 7.75C17.6642 7.75 18 7.41421 18 7C18 6.58579 17.6642 6.25 17.25 6.25L11.75 6.25C11.3358 6.25 11 6.58579 11 7C11 7.41421 11.3358 7.75 11.75 7.75L17.25 7.75Z" fill="currentColor"/>
    <path d="M5 7C5 7.41421 4.66421 7.75 4.25 7.75H2.75C2.33579 7.75 2 7.41421 2 7C2 6.58579 2.33579 6.25 2.75 6.25L4.25 6.25C4.66421 6.25 5 6.58579 5 7Z" fill="currentColor"/>
    <path d="M9 13.25C9 13.6642 8.66421 14 8.25 14H2.75C2.33579 14 2 13.6642 2 13.25C2 12.8358 2.33579 12.5 2.75 12.5L8.25 12.5C8.66421 12.5 9 12.8358 9 13.25Z" fill="currentColor"/>
    <path d="M17.25 14C17.6642 14 18 13.6642 18 13.25C18 12.8358 17.6642 12.5 17.25 12.5H15.75C15.3358 12.5 15 12.8358 15 13.25C15 13.6642 15.3358 14 15.75 14H17.25Z" fill="currentColor"/>
    <path d="M14 13.25C14 12.1454 13.1046 11.25 12 11.25C10.8954 11.25 10 12.1454 10 13.25C10 14.3546 10.8954 15.25 12 15.25C13.1046 15.25 14 14.3546 14 13.25Z" fill="currentColor"/>
</svg>
