<svg width="40" height="40" viewBox="0 0 40 40" fill="none" xmlns="http://www.w3.org/2000/svg">
    <rect width="40" height="40" rx="20" fill="#F3F4F6"/>
    <path fill-rule="evenodd" clip-rule="evenodd" d="M15.5 14C15.5 11.5147 17.5147 9.5 20 9.5C22.4853 9.5 24.5 11.5147 24.5 14C24.5 16.4853 22.4853 18.5 20 18.5C17.5147 18.5 15.5 16.4853 15.5 14Z" fill="#374151"/>
    <path fill-rule="evenodd" clip-rule="evenodd" d="M11.7512 28.1053C11.8286 23.6156 15.492 20 20 20C24.5081 20 28.1716 23.6157 28.2488 28.1056C28.2539 28.4034 28.0823 28.676 27.8117 28.8002C25.4327 29.8918 22.7865 30.5 20.0003 30.5C17.2139 30.5 14.5674 29.8917 12.1883 28.7999C11.9176 28.6757 11.7461 28.4031 11.7512 28.1053Z" fill="#374151"/>
</svg>
