<svg xmlns="http://www.w3.org/2000/svg" width="20" height="20" viewBox="0 0 20 20" fill="none">
    <path fill-rule="evenodd" clip-rule="evenodd" d="M4.5 2C3.67157 2 3 2.67157 3 3.5V16.5C3 17.3284 3.67157 18 4.5 18H15.5C16.3284 18 17 17.3284 17 16.5V7.62132C17 7.2235 16.842 6.84197 16.5607 6.56066L12.4393 2.43934C12.158 2.15804 11.7765 2 11.3787 2H4.5ZM8.28033 8.21967C7.98744 7.92678 7.51256 7.92678 7.21967 8.21967C6.92678 8.51256 6.92678 8.98744 7.21967 9.28033L8.93934 11L7.21967 12.7197C6.92678 13.0126 6.92678 13.4874 7.21967 13.7803C7.51256 14.0732 7.98744 14.0732 8.28033 13.7803L10 12.0607L11.7197 13.7803C12.0126 14.0732 12.4874 14.0732 12.7803 13.7803C13.0732 13.4874 13.0732 13.0126 12.7803 12.7197L11.0607 11L12.7803 9.28033C13.0732 8.98744 13.0732 8.51256 12.7803 8.21967C12.4874 7.92678 12.0126 7.92678 11.7197 8.21967L10 9.93934L8.28033 8.21967Z" fill="#6B7280"/>
</svg>
