<svg xmlns="http://www.w3.org/2000/svg" width="20" height="20" viewBox="0 0 20 20" fill="none">
    <path fill-rule="evenodd" clip-rule="evenodd" d="M3.5 3C2.67157 3 2 3.67157 2 4.5V15.5C2 16.3284 2.67157 17 3.5 17H16.5C17.3284 17 18 16.3284 18 15.5V4.5C18 3.67157 17.3284 3 16.5 3H3.5ZM9.875 13.75C9.59886 13.75 9.375 13.5261 9.375 13.25V13.125C8.51054 13.125 7.78272 12.54 7.56583 11.7443C7.49321 11.4778 7.72386 11.25 8 11.25H8.25C8.49098 11.25 8.68566 11.4449 8.86296 11.6224L8.863 11.6225C8.88886 11.6483 8.91434 11.6739 8.93954 11.6983C9.0521 11.8077 9.20569 11.875 9.375 11.875V10.625C8.33947 10.625 7.5 9.78553 7.5 8.75C7.5 7.71447 8.33947 6.875 9.375 6.875V6.75C9.375 6.47386 9.59886 6.25 9.875 6.25H10.125C10.4011 6.25 10.625 6.47386 10.625 6.75V6.875C11.4895 6.875 12.2173 7.46001 12.4342 8.25573C12.5068 8.52215 12.2761 8.75 12 8.75H11.75C11.509 8.75 11.3143 8.5551 11.137 8.37759L11.1369 8.37745C11.1111 8.3516 11.0856 8.32612 11.0605 8.30167C10.9479 8.19233 10.7943 8.125 10.625 8.125V9.375C11.6605 9.375 12.5 10.2145 12.5 11.25C12.5 12.2855 11.6605 13.125 10.625 13.125V13.25C10.625 13.5261 10.4011 13.75 10.125 13.75H9.875ZM8.75 8.75C8.75 8.40482 9.02982 8.125 9.375 8.125V9.375C9.02982 9.375 8.75 9.09518 8.75 8.75ZM11.25 11.25C11.25 11.5952 10.9702 11.875 10.625 11.875V10.625C10.9702 10.625 11.25 10.9048 11.25 11.25Z" fill="#D1D5DB"/>
</svg>
