<svg xmlns="http://www.w3.org/2000/svg" width="21" height="20" viewBox="0 0 21 20" fill="none">
    <path d="M11.2499 10.8176V13.4324C11.6816 13.3527 12.0745 13.2046 12.3876 12.9999C12.8698 12.6846 12.9999 12.352 12.9999 12.125C12.9999 11.898 12.8698 11.5654 12.3876 11.2501C12.0745 11.0454 11.6816 10.8973 11.2499 10.8176Z" fill="#EF4444"/>
    <path d="M8.82961 8.61947C8.88337 8.67543 8.94464 8.73053 9.01404 8.78416C9.22197 8.94484 9.47355 9.06777 9.75 9.1469V6.60315C9.67545 6.62449 9.60271 6.64901 9.53215 6.6766C9.48721 6.69417 9.44315 6.71299 9.40007 6.73302C9.25996 6.79816 9.13019 6.87614 9.01404 6.96589C8.63658 7.25757 8.5 7.59253 8.5 7.87503C8.5 8.05887 8.55784 8.26493 8.70228 8.46683C8.73898 8.51812 8.78126 8.56915 8.82961 8.61947Z" fill="#EF4444"/>
    <path fill-rule="evenodd" clip-rule="evenodd" d="M18.5 10C18.5 14.4183 14.9183 18 10.5 18C6.08172 18 2.5 14.4183 2.5 10C2.5 5.58172 6.08172 2 10.5 2C14.9183 2 18.5 5.58172 18.5 10ZM10.4999 4C10.9142 4 11.2499 4.33579 11.2499 4.75V5.06584C11.8423 5.17106 12.4182 5.40427 12.9031 5.77893C13.3293 6.10829 13.6467 6.51836 13.8282 6.97896C13.9801 7.36432 13.7908 7.79985 13.4055 7.95174C13.0201 8.10363 12.5846 7.91437 12.4327 7.52901C12.3599 7.34437 12.22 7.14675 11.9859 6.96586C11.778 6.80519 11.5264 6.68225 11.2499 6.60312V9.29944C11.948 9.39233 12.6327 9.61819 13.2085 9.99467C13.9955 10.5093 14.4999 11.2644 14.4999 12.125C14.4999 12.9856 13.9955 13.7407 13.2085 14.2553C12.6327 14.6318 11.948 14.8577 11.2499 14.9506V15.25C11.2499 15.6642 10.9142 16 10.4999 16C10.0857 16 9.74994 15.6642 9.74994 15.25V14.9506C9.05186 14.8577 8.3672 14.6318 7.79141 14.2553C7.30887 13.9398 6.9337 13.5376 6.71337 13.0672C6.5377 12.692 6.69937 12.2455 7.07449 12.0699C7.4496 11.8942 7.89611 12.0559 8.07178 12.431C8.15258 12.6035 8.31692 12.8067 8.61229 12.9999C8.92537 13.2046 9.3183 13.3526 9.74994 13.4324V10.6842C9.15762 10.5789 8.58167 10.3457 8.09681 9.97107C7.40033 9.43288 6.99994 8.68017 6.99994 7.875C6.99994 7.06983 7.40034 6.31712 8.09681 5.77893C8.58167 5.40427 9.15762 5.17106 9.74994 5.06584V4.75C9.74994 4.33579 10.0857 4 10.4999 4Z" fill="#EF4444"/>
</svg>
