<svg xmlns="http://www.w3.org/2000/svg" width="20" height="20" viewBox="0 0 20 20" fill="none">
    <path fill-rule="evenodd" clip-rule="evenodd" d="M4.5 2C3.67157 2 3 2.67157 3 3.5V16.5C3 17.3284 3.67157 18 4.5 18H15.5C16.3284 18 17 17.3284 17 16.5V7.62132C17 7.2235 16.842 6.84197 16.5607 6.56066L12.4393 2.43934C12.158 2.15804 11.7765 2 11.3787 2H4.5ZM9.875 14.5C9.59886 14.5 9.375 14.2761 9.375 14V13.875C8.51054 13.875 7.78272 13.29 7.56583 12.4943C7.49321 12.2278 7.72386 12 8 12H8.25C8.49098 12 8.68566 12.1949 8.86296 12.3724L8.863 12.3725C8.88886 12.3983 8.91434 12.4239 8.93954 12.4483C9.0521 12.5577 9.20569 12.625 9.375 12.625V11.375C8.33947 11.375 7.5 10.5355 7.5 9.5C7.5 8.46447 8.33947 7.625 9.375 7.625V7.5C9.375 7.22386 9.59886 7 9.875 7H10.125C10.4011 7 10.625 7.22386 10.625 7.5V7.625C11.4895 7.625 12.2173 8.21001 12.4342 9.00573C12.5068 9.27215 12.2761 9.5 12 9.5H11.75C11.509 9.5 11.3143 9.3051 11.137 9.12759L11.1369 9.12745C11.1111 9.1016 11.0856 9.07612 11.0605 9.05167C10.9479 8.94233 10.7943 8.875 10.625 8.875V10.125C11.6605 10.125 12.5 10.9645 12.5 12C12.5 13.0355 11.6605 13.875 10.625 13.875V14C10.625 14.2761 10.4011 14.5 10.125 14.5H9.875ZM8.75 9.5C8.75 9.15482 9.02982 8.875 9.375 8.875V10.125C9.02982 10.125 8.75 9.84518 8.75 9.5ZM11.25 12C11.25 12.3452 10.9702 12.625 10.625 12.625V11.375C10.9702 11.375 11.25 11.6548 11.25 12Z" fill="#EF4444"/>
</svg>
