<svg xmlns="http://www.w3.org/2000/svg" width="20" height="20" viewBox="0 0 20 20" fill="none">
    <path fill-rule="evenodd" clip-rule="evenodd" d="M3.5 3C2.67157 3 2 3.67157 2 4.5V15.5C2 16.3284 2.67157 17 3.5 17H16.5C17.3284 17 18 16.3284 18 15.5V4.5C18 3.67157 17.3284 3 16.5 3H3.5ZM7.64286 6C7.28782 6 7 6.33579 7 6.75V13.25C7 13.6642 7.28782 14 7.64286 14H12.3571C12.7122 14 13 13.6642 13 13.25V8.81066C13 8.61175 12.9323 8.42098 12.8117 8.28033L11.0454 6.21967C10.9249 6.07902 10.7614 6 10.5909 6H7.64286Z" fill="#6B7280"/>
</svg>
